# Blender v2.78 (sub 0) OBJ File: 'untitled.blend'
# www.blender.org
o Cube_Cube.001
v -0.178261 2.234212 -0.134270
v -0.262882 2.765788 -0.198009
v 0.178261 2.234212 -0.134270
v 0.262882 2.765788 -0.198009
v -0.178261 2.234212 0.134270
v -0.262882 2.765788 0.198009
v 0.178261 2.234212 0.134270
v 0.262882 2.765788 0.198009
v 0.178261 2.008143 -0.134270
v -0.178261 2.008143 -0.134270
v 0.178261 2.008143 0.134270
v -0.178261 2.008143 0.134270
v 0.178261 1.711763 -0.134270
v -0.178261 1.711763 -0.134270
v 0.178261 1.711763 0.134270
v -0.178261 1.711763 0.134270
v 0.178261 0.845664 -0.134270
v -0.178261 0.845664 -0.134270
v 0.178261 0.845664 0.134270
v -0.178261 0.845664 0.134270
v -0.500000 2.008143 -0.134270
v -0.500000 2.008143 0.134270
v -0.500000 1.711763 -0.134270
v -0.500000 1.711763 0.134270
v -0.178261 1.711763 0.801991
v -0.178261 2.008143 0.801991
v -0.500000 1.711763 0.801991
v -0.500000 2.008143 0.801991
v 0.178261 2.008143 0.134270
v 0.178261 2.008143 -0.134270
v 0.178261 1.711763 0.134270
v 0.178261 1.711763 -0.134270
v 0.178261 0.500701 -0.134270
v -0.178261 0.500701 -0.134270
v 0.178261 0.500701 0.134270
v -0.178261 0.500701 0.134270
v -0.428331 0.845664 -0.134270
v -0.428331 0.845664 0.134270
v -0.428331 0.500701 -0.134270
v -0.428331 0.500701 0.134270
v -0.178261 0.172731 -0.134270
v -0.178261 0.172731 0.134270
v -0.428331 0.172731 -0.134270
v -0.428331 0.172731 0.134270
v -0.178261 -0.234212 -0.134270
v -0.178261 -0.234212 0.134270
v -0.428331 -0.234212 -0.134270
v -0.428331 -0.234212 0.134270
v 0.098921 2.527580 0.118461
v 0.098921 2.697359 0.118461
v 0.266843 2.527580 0.118461
v 0.266843 2.697359 0.118461
v 0.098921 2.527580 0.244944
v 0.098921 2.697359 0.244944
v 0.266843 2.527580 0.244944
v 0.266843 2.697359 0.244944
v 0.178261 2.234212 -0.134270
v 0.262882 2.765788 -0.198009
v -0.178261 2.234212 -0.134270
v -0.262882 2.765788 -0.198009
v 0.178261 2.234212 0.134270
v 0.262882 2.765788 0.198009
v -0.178261 2.234212 0.134270
v -0.262882 2.765788 0.198009
v -0.178261 2.008143 -0.134270
v 0.178261 2.008143 -0.134270
v -0.178261 2.008143 0.134270
v 0.178261 2.008143 0.134270
v -0.178261 1.711763 -0.134270
v 0.178261 1.711763 -0.134270
v -0.178261 1.711763 0.134270
v 0.178261 1.711763 0.134270
v -0.178261 0.845664 -0.134270
v 0.178261 0.845664 -0.134270
v -0.178261 0.845664 0.134270
v 0.178261 0.845664 0.134270
v 0.500000 2.008143 -0.134270
v 0.500000 2.008143 0.134270
v 0.500000 1.711763 -0.134270
v 0.500000 1.711763 0.134270
v 0.178260 1.711763 0.801991
v 0.178260 2.008143 0.801991
v 0.500000 1.711763 0.801991
v 0.500000 2.008143 0.801991
v -0.178261 2.008143 0.134270
v -0.178261 2.008143 -0.134270
v -0.178261 1.711763 0.134270
v -0.178261 1.711763 -0.134270
v -0.178261 0.500701 -0.134270
v 0.178261 0.500701 -0.134270
v -0.178261 0.500701 0.134270
v 0.178261 0.500701 0.134270
v 0.428331 0.845664 -0.134270
v 0.428331 0.845664 0.134270
v 0.428331 0.500701 -0.134270
v 0.428331 0.500701 0.134270
v 0.178261 0.172731 -0.134270
v 0.178261 0.172731 0.134270
v 0.428331 0.172731 -0.134270
v 0.428331 0.172731 0.134270
v 0.178261 -0.234212 -0.134270
v 0.178261 -0.234212 0.134270
v 0.428331 -0.234212 -0.134270
v 0.428331 -0.234212 0.134270
v -0.098921 2.527580 0.118461
v -0.098921 2.697359 0.118461
v -0.266843 2.527580 0.118461
v -0.266843 2.697359 0.118461
v -0.098921 2.527580 0.244944
v -0.098921 2.697359 0.244944
v -0.266843 2.527580 0.244944
v -0.266843 2.697359 0.244944
vt 1.0000 0.0000
vt 0.0000 1.0000
vt 0.0000 0.0000
vt 1.0000 0.0000
vt 0.0000 1.0000
vt 0.0000 0.0000
vt 1.0000 0.0000
vt 0.0000 1.0000
vt 0.0000 0.0000
vt 1.0000 0.0000
vt 0.0000 1.0000
vt 0.0000 0.0000
vt 1.0000 0.0000
vt 0.0000 1.0000
vt 0.0000 0.0000
vt 0.0000 1.0000
vt 1.0000 0.0000
vt 0.0000 1.0000
vt 0.0000 0.0000
vt 1.0000 0.0000
vt 0.0000 1.0000
vt 0.0000 0.0000
vt 1.0000 0.0000
vt 0.0000 1.0000
vt 0.0000 0.0000
vt 1.0000 0.0000
vt 0.0000 1.0000
vt 0.0000 0.0000
vt 1.0000 0.0000
vt 0.0000 1.0000
vt 0.0000 0.0000
vt 0.0000 0.0000
vt 1.0000 1.0000
vt 0.0000 1.0000
vt 1.0000 0.0000
vt 0.0000 1.0000
vt 1.0000 0.0000
vt 0.0000 1.0000
vt 0.0000 0.0000
vt 1.0000 0.0000
vt 0.0000 1.0000
vt 0.0000 0.0000
vt 1.0000 0.0000
vt 0.0000 1.0000
vt 0.0000 0.0000
vt 1.0000 0.0000
vt 0.0000 1.0000
vt 0.0000 0.0000
vt 1.0000 0.0000
vt 0.0000 1.0000
vt 0.0000 0.0000
vt 1.0000 0.0000
vt 0.0000 1.0000
vt 0.0000 0.0000
vt 0.0000 1.0000
vt 1.0000 0.0000
vt 0.0000 1.0000
vt 0.0000 1.0000
vt 1.0000 0.0000
vt 0.0000 1.0000
vt 0.0000 0.0000
vt 1.0000 0.0000
vt 0.0000 1.0000
vt 0.0000 1.0000
vt 0.0000 0.0000
vt 1.0000 0.0000
vt 0.0000 1.0000
vt 0.0000 0.0000
vt 0.0000 0.0000
vt 1.0000 1.0000
vt 0.0000 1.0000
vt 1.0000 1.0000
vt 1.0000 1.0000
vt 0.0000 1.0000
vt 1.0000 0.0000
vt 0.0000 1.0000
vt 0.0000 0.0000
vt 1.0000 0.0000
vt 0.0000 1.0000
vt 0.0000 0.0000
vt 1.0000 0.0000
vt 0.0000 1.0000
vt 1.0000 0.0000
vt 0.0000 1.0000
vt 0.0000 0.0000
vt 1.0000 0.0000
vt 0.0000 1.0000
vt 0.0000 0.0000
vt 1.0000 0.0000
vt 0.0000 1.0000
vt 0.0000 0.0000
vt 0.0000 0.0000
vt 1.0000 0.0000
vt 0.0000 1.0000
vt 1.0000 0.0000
vt 0.0000 1.0000
vt 0.0000 0.0000
vt 1.0000 0.0000
vt 0.0000 1.0000
vt 0.0000 1.0000
vt 0.0000 0.0000
vt 1.0000 0.0000
vt 0.0000 1.0000
vt 0.0000 0.0000
vt 1.0000 0.0000
vt 0.0000 0.0000
vt 1.0000 0.0000
vt 0.0000 1.0000
vt 0.0000 0.0000
vt 1.0000 0.0000
vt 0.0000 1.0000
vt 0.0000 0.0000
vt 1.0000 0.0000
vt 0.0000 1.0000
vt 0.0000 0.0000
vt 1.0000 0.0000
vt 0.0000 1.0000
vt 0.0000 0.0000
vt 1.0000 0.0000
vt 0.0000 1.0000
vt 0.0000 0.0000
vt 1.0000 0.0000
vt 0.0000 1.0000
vt 0.0000 0.0000
vt 1.0000 0.0000
vt 0.0000 1.0000
vt 0.0000 0.0000
vt 1.0000 0.0000
vt 0.0000 0.0000
vt 0.0000 1.0000
vt 1.0000 0.0000
vt 0.0000 1.0000
vt 0.0000 0.0000
vt 1.0000 0.0000
vt 0.0000 1.0000
vt 0.0000 0.0000
vt 1.0000 0.0000
vt 0.0000 1.0000
vt 0.0000 0.0000
vt 1.0000 0.0000
vt 0.0000 1.0000
vt 0.0000 0.0000
vt 1.0000 0.0000
vt 0.0000 1.0000
vt 0.0000 0.0000
vt 1.0000 0.0000
vt 1.0000 0.0000
vt 0.0000 1.0000
vt 0.0000 0.0000
vt 1.0000 0.0000
vt 0.0000 1.0000
vt 0.0000 0.0000
vt 1.0000 0.0000
vt 0.0000 1.0000
vt 0.0000 0.0000
vt 1.0000 0.0000
vt 0.0000 1.0000
vt 0.0000 0.0000
vt 1.0000 0.0000
vt 0.0000 1.0000
vt 0.0000 0.0000
vt 0.0000 0.0000
vt 1.0000 1.0000
vt 0.0000 1.0000
vt 1.0000 0.0000
vt 0.0000 1.0000
vt 1.0000 0.0000
vt 0.0000 1.0000
vt 0.0000 0.0000
vt 1.0000 0.0000
vt 0.0000 1.0000
vt 0.0000 0.0000
vt 1.0000 0.0000
vt 0.0000 1.0000
vt 0.0000 0.0000
vt 1.0000 0.0000
vt 0.0000 1.0000
vt 0.0000 0.0000
vt 1.0000 0.0000
vt 0.0000 0.0000
vt 1.0000 0.0000
vt 0.0000 1.0000
vt 0.0000 0.0000
vt 1.0000 0.0000
vt 1.0000 1.0000
vt 0.0000 1.0000
vt 1.0000 0.0000
vt 1.0000 0.0000
vt 0.0000 1.0000
vt 0.0000 0.0000
vt 1.0000 0.0000
vt 0.0000 1.0000
vt 1.0000 0.0000
vt 0.0000 0.0000
vt 1.0000 0.0000
vt 0.0000 1.0000
vt 0.0000 0.0000
vt 0.0000 0.0000
vt 1.0000 1.0000
vt 0.0000 1.0000
vt 1.0000 1.0000
vt 1.0000 1.0000
vt 1.0000 0.0000
vt 0.0000 1.0000
vt 0.0000 0.0000
vt 1.0000 0.0000
vt 0.0000 1.0000
vt 0.0000 0.0000
vt 1.0000 0.0000
vt 0.0000 1.0000
vt 1.0000 0.0000
vt 0.0000 1.0000
vt 0.0000 0.0000
vt 1.0000 0.0000
vt 0.0000 1.0000
vt 0.0000 0.0000
vt 1.0000 0.0000
vt 0.0000 1.0000
vt 0.0000 0.0000
vt 0.0000 0.0000
vt 1.0000 0.0000
vt 0.0000 1.0000
vt 1.0000 0.0000
vt 0.0000 1.0000
vt 0.0000 0.0000
vt 1.0000 0.0000
vt 0.0000 1.0000
vt 1.0000 0.0000
vt 0.0000 0.0000
vt 1.0000 0.0000
vt 0.0000 1.0000
vt 0.0000 0.0000
vt 0.0000 1.0000
vt 0.0000 0.0000
vt 1.0000 0.0000
vt 0.0000 1.0000
vt 0.0000 0.0000
vt 1.0000 0.0000
vt 0.0000 1.0000
vt 0.0000 0.0000
vt 1.0000 0.0000
vt 0.0000 1.0000
vt 0.0000 0.0000
vt 1.0000 0.0000
vt 0.0000 1.0000
vt 0.0000 0.0000
vt 1.0000 0.0000
vt 0.0000 1.0000
vt 0.0000 0.0000
vt 1.0000 0.0000
vt 0.0000 1.0000
vt 0.0000 0.0000
vt 1.0000 0.0000
vt 0.0000 1.0000
vt 0.0000 0.0000
vt 0.0000 0.0000
vt 1.0000 1.0000
vt 0.0000 1.0000
vt 1.0000 0.0000
vt 1.0000 1.0000
vt 1.0000 1.0000
vt 1.0000 1.0000
vt 1.0000 1.0000
vt 1.0000 1.0000
vt 1.0000 1.0000
vt 1.0000 1.0000
vt 1.0000 1.0000
vt 1.0000 1.0000
vt 1.0000 1.0000
vt 1.0000 1.0000
vt 1.0000 1.0000
vt 1.0000 1.0000
vt 1.0000 1.0000
vt 1.0000 1.0000
vt 1.0000 1.0000
vt 1.0000 1.0000
vt 1.0000 1.0000
vt 1.0000 1.0000
vt 1.0000 1.0000
vt 1.0000 1.0000
vt 1.0000 1.0000
vt 1.0000 1.0000
vt 1.0000 0.0000
vt 1.0000 1.0000
vt 1.0000 1.0000
vt 1.0000 1.0000
vt 1.0000 1.0000
vt 1.0000 1.0000
vt 1.0000 1.0000
vt 1.0000 1.0000
vt 1.0000 1.0000
vt 1.0000 1.0000
vt 1.0000 1.0000
vt 1.0000 1.0000
vt 1.0000 1.0000
vt 1.0000 1.0000
vt 1.0000 1.0000
vt 1.0000 1.0000
vt 1.0000 1.0000
vt 1.0000 1.0000
vt 1.0000 1.0000
vt 1.0000 1.0000
vt 1.0000 1.0000
vt 1.0000 1.0000
vt 1.0000 1.0000
vt 1.0000 1.0000
vt 1.0000 1.0000
vt 1.0000 1.0000
vt 1.0000 1.0000
vt 1.0000 1.0000
vt 1.0000 1.0000
vt 1.0000 1.0000
vt 1.0000 0.0000
vt 1.0000 1.0000
vt 1.0000 1.0000
vt 1.0000 1.0000
vt 1.0000 1.0000
vt 1.0000 1.0000
vt 1.0000 1.0000
vt 1.0000 1.0000
vt 1.0000 0.0000
vt 1.0000 1.0000
vt 1.0000 1.0000
vt 1.0000 1.0000
vt 1.0000 1.0000
vt 1.0000 0.0000
vt 1.0000 0.0000
vt 1.0000 1.0000
vt 1.0000 1.0000
vt 1.0000 1.0000
vt 1.0000 1.0000
vt 1.0000 1.0000
vt 1.0000 1.0000
vt 1.0000 1.0000
vt 1.0000 1.0000
vt 1.0000 1.0000
vt 1.0000 1.0000
vt 1.0000 1.0000
vt 1.0000 1.0000
vt 1.0000 1.0000
vt 1.0000 1.0000
vt 1.0000 1.0000
vt 1.0000 1.0000
vt 1.0000 1.0000
vn 0.0000 -0.1191 -0.9929
vn 0.9876 -0.1572 0.0000
vn -0.0000 -0.1191 0.9929
vn -0.9876 -0.1572 0.0000
vn 1.0000 0.0000 0.0000
vn 0.0000 1.0000 0.0000
vn -1.0000 0.0000 0.0000
vn -0.0000 0.0000 1.0000
vn 0.0000 0.0000 -1.0000
vn 0.0000 -1.0000 0.0000
s off
f 4/1/1 1/2/1 2/3/1
f 8/4/2 3/5/2 4/6/2
f 6/7/3 7/8/3 8/9/3
f 2/10/4 5/11/4 6/12/4
f 7/13/5 9/14/5 3/15/5
f 8/4/6 2/16/6 6/12/6
f 10/17/6 22/18/6 12/19/6
f 1/20/7 12/21/7 5/22/7
f 5/23/8 11/24/8 7/25/8
f 3/26/9 10/27/9 1/28/9
f 16/29/8 19/30/8 15/31/8
f 11/32/8 31/33/8 29/34/8
f 12/35/8 15/36/8 11/32/8
f 9/37/9 14/38/9 10/39/9
f 20/40/8 35/41/8 19/42/8
f 13/43/9 18/44/9 14/45/9
f 14/46/7 20/47/7 16/48/7
f 15/49/5 17/50/5 13/51/5
f 21/52/7 24/53/7 22/54/7
f 14/46/9 21/55/9 10/39/9
f 22/56/6 26/57/6 12/19/6
f 16/29/10 23/58/10 14/45/10
f 26/59/8 27/60/8 25/61/8
f 24/62/7 28/63/7 22/54/7
f 12/35/5 25/64/5 16/48/5
f 16/29/10 27/60/10 24/65/10
f 29/66/5 32/67/5 30/68/5
f 9/69/8 29/70/8 30/71/8
f 13/51/8 30/72/8 32/67/8
f 15/31/8 32/73/8 31/74/8
f 33/75/10 36/76/10 34/77/10
f 17/78/9 34/79/9 18/80/9
f 36/81/5 41/82/5 34/77/5
f 19/83/5 33/84/5 17/85/5
f 37/86/7 40/87/7 38/88/7
f 18/89/6 38/90/6 20/91/6
f 20/40/8 40/87/8 36/92/8
f 34/93/9 37/94/9 18/80/9
f 41/95/9 47/96/9 43/97/9
f 40/98/8 42/99/8 36/92/8
f 34/93/9 43/100/9 39/101/9
f 39/102/7 44/103/7 40/104/7
f 46/105/10 47/96/10 45/106/10
f 43/107/7 48/108/7 44/109/7
f 44/110/8 46/111/8 42/112/8
f 42/113/5 45/114/5 41/115/5
f 52/116/9 49/117/9 50/118/9
f 56/119/5 51/120/5 52/121/5
f 54/122/8 55/123/8 56/124/8
f 50/125/7 53/126/7 54/127/7
f 51/128/10 53/126/10 49/129/10
f 56/119/6 50/130/6 54/127/6
f 57/131/1 60/132/1 58/133/1
f 59/134/4 64/135/4 60/136/4
f 63/137/3 62/138/3 64/139/3
f 61/140/2 58/141/2 62/142/2
f 65/143/7 63/144/7 59/145/7
f 58/146/6 64/135/6 62/142/6
f 78/147/6 66/148/6 68/149/6
f 68/150/5 57/151/5 61/152/5
f 67/153/8 61/154/8 63/155/8
f 66/156/9 59/157/9 57/158/9
f 75/159/8 72/160/8 71/161/8
f 67/162/8 87/163/8 71/164/8
f 71/165/8 68/166/8 67/162/8
f 70/167/9 65/168/9 66/169/9
f 91/170/8 76/171/8 75/172/8
f 74/173/9 69/174/9 70/175/9
f 76/176/5 70/177/5 72/178/5
f 73/179/7 71/164/7 69/180/7
f 80/181/5 77/182/5 78/183/5
f 77/184/9 70/177/9 66/169/9
f 68/149/6 84/185/6 78/186/6
f 79/187/10 72/160/10 70/175/10
f 83/188/8 82/189/8 81/190/8
f 84/191/5 80/192/5 78/183/5
f 81/193/7 68/166/7 72/178/7
f 83/188/10 72/160/10 80/194/10
f 88/195/7 85/196/7 86/197/7
f 65/198/8 85/199/8 67/200/8
f 69/180/8 86/201/8 65/168/8
f 71/161/8 88/202/8 69/174/8
f 92/203/10 89/204/10 90/205/10
f 90/206/9 73/207/9 74/208/9
f 97/209/7 92/210/7 90/205/7
f 89/211/7 75/212/7 73/213/7
f 96/214/5 93/215/5 94/216/5
f 94/217/6 74/218/6 76/219/6
f 96/214/8 76/171/8 92/220/8
f 93/221/9 90/222/9 74/208/9
f 103/223/9 97/224/9 99/225/9
f 98/226/8 96/227/8 92/220/8
f 99/228/9 90/222/9 95/229/9
f 100/230/5 95/231/5 96/232/5
f 103/223/10 102/233/10 101/234/10
f 104/235/5 99/236/5 100/237/5
f 102/238/8 100/239/8 98/240/8
f 101/241/7 98/242/7 97/243/7
f 105/244/9 108/245/9 106/246/9
f 107/247/7 112/248/7 108/249/7
f 111/250/8 110/251/8 112/252/8
f 109/253/5 106/254/5 110/255/5
f 105/256/10 111/257/10 107/258/10
f 106/259/6 112/248/6 110/255/6
f 4/1/1 3/260/1 1/2/1
f 8/4/2 7/261/2 3/5/2
f 6/7/3 5/262/3 7/8/3
f 2/10/4 1/263/4 5/11/4
f 7/13/5 11/264/5 9/14/5
f 8/4/6 4/265/6 2/16/6
f 10/17/6 21/266/6 22/18/6
f 1/20/7 10/267/7 12/21/7
f 5/23/8 12/268/8 11/24/8
f 3/26/9 9/269/9 10/27/9
f 16/29/8 20/270/8 19/30/8
f 11/32/8 15/49/8 31/33/8
f 12/35/8 16/271/8 15/36/8
f 9/37/9 13/272/9 14/38/9
f 20/40/8 36/273/8 35/41/8
f 13/43/9 17/274/9 18/44/9
f 14/46/7 18/275/7 20/47/7
f 15/49/5 19/276/5 17/50/5
f 21/52/7 23/277/7 24/53/7
f 14/46/9 23/277/9 21/55/9
f 22/56/6 28/278/6 26/57/6
f 16/29/10 24/279/10 23/58/10
f 26/59/8 28/278/8 27/60/8
f 24/62/7 27/280/7 28/63/7
f 12/35/5 26/281/5 25/64/5
f 16/29/10 25/282/10 27/60/10
f 29/66/5 31/33/5 32/67/5
f 9/69/8 11/283/8 29/70/8
f 13/51/8 9/37/8 30/72/8
f 15/31/8 13/43/8 32/73/8
f 33/75/10 35/284/10 36/76/10
f 17/78/9 33/285/9 34/79/9
f 36/81/5 42/286/5 41/82/5
f 19/83/5 35/284/5 33/84/5
f 37/86/7 39/287/7 40/87/7
f 18/89/6 37/288/6 38/90/6
f 20/40/8 38/289/8 40/87/8
f 34/93/9 39/287/9 37/94/9
f 41/95/9 45/290/9 47/96/9
f 40/98/8 44/291/8 42/99/8
f 34/93/9 41/292/9 43/100/9
f 39/102/7 43/293/7 44/103/7
f 46/105/10 48/294/10 47/96/10
f 43/107/7 47/295/7 48/108/7
f 44/110/8 48/294/8 46/111/8
f 42/113/5 46/296/5 45/114/5
f 52/116/9 51/297/9 49/117/9
f 56/119/5 55/298/5 51/120/5
f 54/122/8 53/299/8 55/123/8
f 50/125/7 49/300/7 53/126/7
f 51/128/10 55/298/10 53/126/10
f 56/119/6 52/301/6 50/130/6
f 57/131/1 59/302/1 60/132/1
f 59/134/4 63/303/4 64/135/4
f 63/137/3 61/304/3 62/138/3
f 61/140/2 57/305/2 58/141/2
f 65/143/7 67/306/7 63/144/7
f 58/146/6 60/307/6 64/135/6
f 78/147/6 77/308/6 66/148/6
f 68/150/5 66/309/5 57/151/5
f 67/153/8 68/310/8 61/154/8
f 66/156/9 65/311/9 59/157/9
f 75/159/8 76/312/8 72/160/8
f 67/162/8 85/313/8 87/163/8
f 71/165/8 72/314/8 68/166/8
f 70/167/9 69/315/9 65/168/9
f 91/170/8 92/316/8 76/171/8
f 74/173/9 73/317/9 69/174/9
f 76/176/5 74/318/5 70/177/5
f 73/179/7 75/319/7 71/164/7
f 80/181/5 79/320/5 77/182/5
f 77/184/9 79/320/9 70/177/9
f 68/149/6 82/321/6 84/185/6
f 79/187/10 80/322/10 72/160/10
f 83/188/8 84/185/8 82/189/8
f 84/191/5 83/323/5 80/192/5
f 81/193/7 82/324/7 68/166/7
f 83/188/10 81/325/10 72/160/10
f 88/195/7 87/163/7 85/196/7
f 65/198/8 86/326/8 85/199/8
f 69/180/8 88/195/8 86/201/8
f 71/161/8 87/327/8 88/202/8
f 92/203/10 91/328/10 89/204/10
f 90/206/9 89/329/9 73/207/9
f 97/209/7 98/330/7 92/210/7
f 89/211/7 91/328/7 75/212/7
f 96/214/5 95/331/5 93/215/5
f 94/217/6 93/332/6 74/218/6
f 96/214/8 94/333/8 76/171/8
f 93/221/9 95/331/9 90/222/9
f 103/223/9 101/334/9 97/224/9
f 98/226/8 100/335/8 96/227/8
f 99/228/9 97/336/9 90/222/9
f 100/230/5 99/337/5 95/231/5
f 103/223/10 104/338/10 102/233/10
f 104/235/5 103/339/5 99/236/5
f 102/238/8 104/338/8 100/239/8
f 101/241/7 102/340/7 98/242/7
f 105/244/9 107/341/9 108/245/9
f 107/247/7 111/257/7 112/248/7
f 111/250/8 109/342/8 110/251/8
f 109/253/5 105/343/5 106/254/5
f 105/256/10 109/253/10 111/257/10
f 106/259/6 108/344/6 112/248/6
